# xmcd
#
# Track frame offsets: 
#        150
#        12986
#        28231
#        37088
#        52908
#        64565
#        76216
#        92819
#        103947
#        118743
#        130035
#        142327
#        155785
#        168271
#        181409
#        194551
#        218148
#        230314
#        245193
#        261992
#        275711
#        290218
#        303324
#        331366
#
# Disc length: 4599 seconds
#
# Revision: 1
# Processed by: cddbd v1.5.2PL0 Copyright (c) Steve Scherf et al.
# Submitted via: ExactAudioCopy v0.99pb5
#
DISCID=7611f518
DTITLE=B. B. King - He's Dynamite!
DYEAR=1998
DGENRE=Blues
TTITLE0=Every Day (I Have the Blues)
TTITLE1=B.B.'s Boogie
TTITLE2=A New Way of Driving
TTITLE3=Walkin' and Cryin'
TTITLE4=She's Dynamite
TTITLE5=Shake It Up and Go
TTITLE6=My Own Fault
TTITLE7=Catfish Blues
TTITLE8=Mr. Pawnbroker
TTITLE9=Flying High
TTITLE10=Low Rider
TTITLE11=Jump with B.B.
TTITLE12=I'll Survive
TTITLE13=You're On the Top
TTITLE14=Please Love Me
TTITLE15=You Done Your Good thing now
TTITLE16=You Know I Go For You
TTITLE17=Past Day
TTITLE18=The Other Night Blues
TTITLE19=Questionnaire Blues
TTITLE20=She Don't Move Me No More
TTITLE21=Rock Me Baby
TTITLE22=Sweet Sixteen
TTITLE23=You Upset Me Baby
EXTD=
EXTT0=
EXTT1=
EXTT2=
EXTT3=
EXTT4=
EXTT5=
EXTT6=
EXTT7=
EXTT8=
EXTT9=
EXTT10=
EXTT11=
EXTT12=
EXTT13=
EXTT14=
EXTT15=
EXTT16=
EXTT17=
EXTT18=
EXTT19=
EXTT20=
EXTT21=
EXTT22=
EXTT23=
PLAYORDER=
